<?xml version='1.0' encoding='utf-8'?>
<svg xmlns="http://www.w3.org/2000/svg" xmlns:xlink="http://www.w3.org/1999/xlink" viewBox="531.1769 0.0000 92.6545 265.6500" version="1.0" width="92.6545" height="265.6500" preserveAspectRatio="xMidYMid meet"><defs id="defs4">
    <linearGradient id="linearGradient5946">
      <stop id="stop5952" style="stop-color:#c37f00;stop-opacity:.69802" offset="0" />
      <stop id="stop5954" style="stop-color:#9e6700;stop-opacity:0" offset="1" />
    </linearGradient>
    <linearGradient id="linearGradient5680">
      <stop id="stop5682" style="stop-color:#502d16;stop-opacity:0" offset="0" />
      <stop id="stop5686" style="stop-color:#502d16;stop-opacity:.49804" offset=".5" />
      <stop id="stop5684" style="stop-color:#502d16;stop-opacity:0" offset="1" />
    </linearGradient>
    <linearGradient id="linearGradient3525">
      <stop id="stop3527" style="stop-color:#502d16" offset="0" />
      <stop id="stop3529" style="stop-color:#502d16;stop-opacity:0" offset="1" />
    </linearGradient>
    <linearGradient id="linearGradient5840">
      <stop id="stop5842" style="stop-color:#b67700" offset="0" />
      <stop id="stop5846" style="stop-color:#ffab0a" offset=".5" />
      <stop id="stop3521" style="stop-color:#ea9900" offset=".75" />
      <stop id="stop5844" style="stop-color:#b67700" offset="1" />
    </linearGradient>
    <linearGradient id="linearGradient5582">
      <stop id="stop5584" style="stop-color:#ffffff" offset="0" />
      <stop id="stop5586" style="stop-color:#ffffff;stop-opacity:0" offset="1" />
    </linearGradient>
    <linearGradient id="linearGradient3181">
      <stop id="stop3183" style="stop-color:#ffffff;stop-opacity:0" offset="0" />
      <stop id="stop3189" style="stop-color:#ffffff;stop-opacity:.069307" offset=".26678" />
      <stop id="stop3185" style="stop-color:#ffffff;stop-opacity:.86634" offset=".56962" />
      <stop id="stop3191" style="stop-color:#ffffff;stop-opacity:.044554" offset=".85563" />
      <stop id="stop3187" style="stop-color:#ffffff;stop-opacity:0" offset="1" />
    </linearGradient>
    <linearGradient id="linearGradient4228">
      <stop id="stop4230" style="stop-color:#ffffff" offset="0" />
      <stop id="stop3161" style="stop-color:#ffffff;stop-opacity:0" offset=".74684" />
      <stop id="stop4232" style="stop-color:#ffffff;stop-opacity:0" offset="1" />
    </linearGradient>
    <linearGradient id="linearGradient8591" y2="-264.4" xlink:href="#linearGradient3181" gradientUnits="userSpaceOnUse" x2="247.52" gradientTransform="matrix(1.1485 0 0 1.0533 -466.93 -85.51)" y1="-264.4" x1="41.734" />
    <radialGradient id="radialGradient8593" xlink:href="#linearGradient4228" gradientUnits="userSpaceOnUse" cy="886.25" cx="152.9" gradientTransform="matrix(1.4563 -.0000021644 .0000018315 2.2525 -507.97 -2442.9)" r="66.244" />
    <radialGradient id="radialGradient8595" xlink:href="#linearGradient5582" gradientUnits="userSpaceOnUse" cy="-423.35" cx="-289.32" gradientTransform="matrix(1.0471 -.0053114 .0013817 .14440 18.569 -369)" r="99.436" />
    <radialGradient id="radialGradient8597" xlink:href="#linearGradient5582" gradientUnits="userSpaceOnUse" cy="-423.35" cx="-289.32" gradientTransform="matrix(.74804 -.0072991 .00098703 .19844 -67.567 -599.06)" r="99.436" />
    <radialGradient id="radialGradient8599" xlink:href="#linearGradient5582" gradientUnits="userSpaceOnUse" cy="-423.35" cx="-289.32" gradientTransform="matrix(.53785 -.0047435 .00070968 .12896 -127.56 -579.62)" r="99.436" />
    <linearGradient id="linearGradient8601" y2="-264.4" xlink:href="#linearGradient3181" gradientUnits="userSpaceOnUse" x2="247.52" gradientTransform="matrix(.86850 0 0 1.8764 -423.72 -260.91)" y1="-264.4" x1="41.734" />
    <radialGradient id="radialGradient3318" xlink:href="#linearGradient4228" gradientUnits="userSpaceOnUse" cy="-2310.2" cx="154.65" gradientTransform="matrix(.95514 1.0903e-7 0 .77089 581.28 1120)" r="66.244" />
    <radialGradient id="radialGradient3321" xlink:href="#linearGradient4228" gradientUnits="userSpaceOnUse" cy="-496" cx="-582.55" gradientTransform="matrix(1.2221 -4.1309e-7 1.447e-7 .43142 1439.8 -358.71)" r="65.009" />
    <radialGradient id="radialGradient3324" xlink:href="#linearGradient4228" gradientUnits="userSpaceOnUse" cy="886.25" cx="152.9" gradientTransform="matrix(1.3757 -.0000011499 .0000011384 1.3291 523.54 -1606.3)" r="66.244" />
    <linearGradient id="linearGradient3330" y2="-264.4" xlink:href="#linearGradient3181" gradientUnits="userSpaceOnUse" x2="247.52" gradientTransform="matrix(1.0264 0 0 .83442 570.11 -138.33)" y1="-264.4" x1="41.734" />
    <radialGradient id="radialGradient3335" xlink:href="#linearGradient4228" gradientUnits="userSpaceOnUse" cy="25.652" cx="154.26" gradientTransform="matrix(1.9976 -.0000040726 3.5245e-7 .29644 433.56 -419.11)" r="66.244" />
    <radialGradient id="radialGradient5448" xlink:href="#linearGradient4228" gradientUnits="userSpaceOnUse" cy="25.652" cx="154.26" gradientTransform="matrix(2.2363 -.0000040726 3.9456e-7 .29644 -2297.6 -553.94)" r="66.244" />
    <linearGradient id="linearGradient5450" y2="-145.02" xlink:href="#linearGradient3181" gradientUnits="userSpaceOnUse" x2="333.22" gradientTransform="matrix(1 0 0 1.0407 -2109.8 -313.51)" y1="-148.75" x1="-60.187" />
    <linearGradient id="linearGradient5452" y2="-264.4" xlink:href="#linearGradient3181" gradientUnits="userSpaceOnUse" x2="247.52" gradientTransform="matrix(1.0264 0 0 1.0407 -2113.3 -313.51)" y1="-264.4" x1="41.734" />
    <radialGradient id="radialGradient5454" xlink:href="#linearGradient4228" gradientUnits="userSpaceOnUse" cy="886.25" cx="152.9" gradientTransform="matrix(1.3757 -.0000032715 .0000011384 3.7812 -2162.1 -3966.8)" r="66.244" />
    <radialGradient id="radialGradient5456" xlink:href="#linearGradient4228" gradientUnits="userSpaceOnUse" cy="-469.58" cx="155.57" gradientTransform="matrix(1.355 -.0000036795 6.6053e-7 .23884 -2164 -866.24)" r="66.244" />
    <radialGradient id="radialGradient5458" xlink:href="#linearGradient5582" gradientUnits="userSpaceOnUse" cy="-748.45" cx="-820.08" gradientTransform="matrix(1.0764 -5.2364e-8 4.925e-7 .15591 -1073.5 -824.35)" r="82.007" />
    <radialGradient id="radialGradient5460" xlink:href="#linearGradient5582" gradientUnits="userSpaceOnUse" cy="-748.45" cx="-820.08" gradientTransform="matrix(1.2804 -6.2093e-8 5.8587e-7 .18488 -904.48 -759.27)" r="82.007" />
    <radialGradient id="radialGradient5462" xlink:href="#linearGradient5582" gradientUnits="userSpaceOnUse" cy="-931.85" cx="-813.8" gradientTransform="matrix(.89863 .019941 -.039103 1.7622 -1257.5 495.93)" r="128.44" />
    <radialGradient id="radialGradient5464" xlink:href="#linearGradient5582" gradientUnits="userSpaceOnUse" cy="-986.42" cx="-805.84" gradientTransform="matrix(1.2073 .0000020641 -.0000010351 .69960 166.38 -296.08)" r="25.199" />
    <radialGradient id="radialGradient5536" xlink:href="#linearGradient4228" gradientUnits="userSpaceOnUse" cy="25.652" cx="154.26" gradientTransform="matrix(2.2363 -.0000040726 3.9456e-7 .29644 -1161.1 -361.31)" r="66.244" />
    <linearGradient id="linearGradient5538" y2="-145.02" xlink:href="#linearGradient3181" gradientUnits="userSpaceOnUse" x2="333.22" gradientTransform="matrix(1 0 0 1.0407 -973.3 -120.88)" y1="-148.75" x1="-60.187" />
    <linearGradient id="linearGradient5540" y2="-264.4" xlink:href="#linearGradient3181" gradientUnits="userSpaceOnUse" x2="247.52" gradientTransform="matrix(1.0264 0 0 1.0407 -976.74 -120.88)" y1="-264.4" x1="41.734" />
    <radialGradient id="radialGradient5542" xlink:href="#linearGradient4228" gradientUnits="userSpaceOnUse" cy="886.25" cx="152.9" gradientTransform="matrix(1.3757 -.0000032715 .0000011384 3.7812 -1025.6 -3774.2)" r="66.244" />
    <radialGradient id="radialGradient5544" xlink:href="#linearGradient4228" gradientUnits="userSpaceOnUse" cy="-469.58" cx="155.57" gradientTransform="matrix(1.355 -.0000036795 6.6053e-7 .23884 -1027.5 -673.6)" r="66.244" />
    <radialGradient id="radialGradient5546" xlink:href="#linearGradient5582" gradientUnits="userSpaceOnUse" cy="-748.45" cx="-820.08" gradientTransform="matrix(1.0764 -5.2364e-8 4.925e-7 .15591 63.024 -631.71)" r="82.007" />
    <radialGradient id="radialGradient5548" xlink:href="#linearGradient5582" gradientUnits="userSpaceOnUse" cy="-748.45" cx="-820.08" gradientTransform="matrix(1.2804 -6.2093e-8 5.8587e-7 .18488 232.08 -566.63)" r="82.007" />
    <radialGradient id="radialGradient5550" xlink:href="#linearGradient5582" gradientUnits="userSpaceOnUse" cy="-931.85" cx="-813.8" gradientTransform="matrix(.89863 .019941 -.039103 1.7622 -120.99 688.57)" r="128.44" />
    <radialGradient id="radialGradient5552" xlink:href="#linearGradient5582" gradientUnits="userSpaceOnUse" cy="-1076.5" cx="-822.11" gradientTransform="matrix(.020654 1.5689 -1.0556 .013896 -1937.7 247.86)" r="62.19" />
    <radialGradient id="radialGradient5555" xlink:href="#linearGradient4228" gradientUnits="userSpaceOnUse" cy="886.25" cx="152.9" gradientTransform="matrix(1.3757 -.0000011499 .0000011384 1.3291 -27.196 -1692.5)" r="66.244" />
    <linearGradient id="linearGradient5558" y2="-264.4" xlink:href="#linearGradient3181" gradientUnits="userSpaceOnUse" x2="247.52" gradientTransform="matrix(1.0264 0 0 1.0407 21.618 -212.39)" y1="-264.4" x1="41.734" />
    <linearGradient id="linearGradient5561" y2="-145.02" xlink:href="#linearGradient3181" gradientUnits="userSpaceOnUse" x2="333.22" gradientTransform="matrix(1 0 0 1.0407 25.062 -212.39)" y1="-148.75" x1="-60.187" />
    <radialGradient id="radialGradient5564" xlink:href="#linearGradient4228" gradientUnits="userSpaceOnUse" cy="25.652" cx="154.26" gradientTransform="matrix(2.2363 -.0000040726 3.9456e-7 .29644 -162.7 -452.81)" r="66.244" />
    <radialGradient id="radialGradient5567" xlink:href="#linearGradient4228" gradientUnits="userSpaceOnUse" cy="-2310.2" cx="154.65" gradientTransform="matrix(.95514 1.0903e-7 0 .77089 33.762 799.35)" r="66.244" />
    <radialGradient id="radialGradient5570" xlink:href="#linearGradient4228" gradientUnits="userSpaceOnUse" cy="-2139.2" cx="158.47" gradientTransform="matrix(1.2593 .00022447 -.00029885 1.6796 -15.884 2750.5)" r="66.244" />
    <radialGradient id="radialGradient5588" xlink:href="#linearGradient5582" gradientUnits="userSpaceOnUse" cy="-695.9" cx="177.58" gradientTransform="matrix(1.0644 -.0069195 .00095067 .14623 -10.766 -577.73)" r="80.203" />
    <radialGradient id="radialGradient5590" xlink:href="#linearGradient5582" gradientUnits="userSpaceOnUse" cy="-418.87" cx="177.33" gradientTransform="matrix(1.3965 -.0069195 .00072458 .14623 -69.757 -577.73)" r="80.203" />
    <radialGradient id="radialGradient5592" xlink:href="#linearGradient5582" gradientUnits="userSpaceOnUse" cy="-969.13" cx="177.83" gradientTransform="matrix(1.0644 -.0069195 .00095067 .14623 -10.766 -577.73)" r="80.203" />
    <radialGradient id="radialGradient3637" xlink:href="#linearGradient5582" gradientUnits="userSpaceOnUse" cy="-931.85" cx="-813.8" gradientTransform="matrix(-.89863 .019941 .039103 1.7622 -1722.1 590.28)" r="128.44" />
    <radialGradient id="radialGradient3640" xlink:href="#linearGradient5582" gradientUnits="userSpaceOnUse" cy="-748.45" cx="-820.08" gradientTransform="matrix(1.2804 -6.2093e-8 5.8587e-7 .18488 2075.2 -664.91)" r="82.007" />
    <radialGradient id="radialGradient3643" xlink:href="#linearGradient5582" gradientUnits="userSpaceOnUse" cy="-748.45" cx="-820.08" gradientTransform="matrix(1.0764 -5.2364e-8 4.925e-7 .15591 1906.1 -730)" r="82.007" />
    <radialGradient id="radialGradient3646" xlink:href="#linearGradient4228" gradientUnits="userSpaceOnUse" cy="-469.58" cx="155.57" gradientTransform="matrix(1.355 -.0000036795 6.6053e-7 .23884 815.64 -771.89)" r="66.244" />
    <radialGradient id="radialGradient3649" xlink:href="#linearGradient4228" gradientUnits="userSpaceOnUse" cy="886.25" cx="152.9" gradientTransform="matrix(-1.3757 -.0000032715 -.0000011384 3.7812 -817.54 -3872.5)" r="66.244" />
    <linearGradient id="linearGradient3652" y2="-264.4" xlink:href="#linearGradient3181" gradientUnits="userSpaceOnUse" x2="247.52" gradientTransform="matrix(1.0264 0 0 1.0407 866.36 -219.16)" y1="-264.4" x1="41.734" />
    <linearGradient id="linearGradient3655" y2="-145.02" xlink:href="#linearGradient3181" gradientUnits="userSpaceOnUse" x2="333.22" gradientTransform="matrix(1 0 0 1.0407 869.8 -219.16)" y1="-148.75" x1="-60.187" />
    <radialGradient id="radialGradient3658" xlink:href="#linearGradient4228" gradientUnits="userSpaceOnUse" cy="25.652" cx="154.26" gradientTransform="matrix(2.2363 -.0000040726 3.9456e-7 .29644 682.05 -459.59)" r="66.244" />
    <linearGradient id="linearGradient3661" y2="-790.22" xlink:href="#linearGradient5840" gradientUnits="userSpaceOnUse" x2="-946.49" y1="-788.85" x1="-1107.8" />
    <linearGradient id="linearGradient3665" y2="-791.41" xlink:href="#linearGradient3525" gradientUnits="userSpaceOnUse" x2="-738.58" gradientTransform="matrix(1.1195 0 0 1.0519 -206.52 401.07)" y1="-768.34" x1="-737.65" />
    <linearGradient id="linearGradient3669" y2="-791.41" xlink:href="#linearGradient3525" gradientUnits="userSpaceOnUse" x2="-738.58" gradientTransform="translate(-293.41 -4.45)" y1="-768.34" x1="-737.65" />
    <linearGradient id="linearGradient3673" y2="-791.41" xlink:href="#linearGradient3525" gradientUnits="userSpaceOnUse" x2="-738.58" gradientTransform="matrix(.81507 0 0 .87881 -428.51 -146.08)" y1="-768.34" x1="-737.65" />
    <linearGradient id="linearGradient3677" y2="-791.41" xlink:href="#linearGradient3525" gradientUnits="userSpaceOnUse" x2="-738.58" gradientTransform="matrix(.67669 0 0 .63090 -530.46 -375.5)" y1="-768.34" x1="-737.65" />
    <linearGradient id="linearGradient5774" y2="-791.41" xlink:href="#linearGradient3525" gradientUnits="userSpaceOnUse" x2="-738.58" gradientTransform="matrix(1.1427 0 0 1 -508.05 363.46)" y1="-768.34" x1="-737.65" />
    <linearGradient id="linearGradient5777" y2="-791.41" xlink:href="#linearGradient3525" gradientUnits="userSpaceOnUse" x2="-738.58" gradientTransform="matrix(.68865 0 0 .93607 -838.83 23.997)" y1="-768.34" x1="-737.65" />
    <linearGradient id="linearGradient5780" y2="-791.41" xlink:href="#linearGradient3525" gradientUnits="userSpaceOnUse" x2="-738.58" gradientTransform="matrix(.82349 0 0 .96271 -739.52 84.021)" y1="-768.34" x1="-737.65" />
    <linearGradient id="linearGradient5783" y2="-711.89" xlink:href="#linearGradient5680" gradientUnits="userSpaceOnUse" x2="-443.98" gradientTransform="translate(-908.52 -207.28)" y1="-730.86" x1="-443.98" />
    <linearGradient id="linearGradient5786" y2="-791.41" xlink:href="#linearGradient3525" gradientUnits="userSpaceOnUse" x2="-738.58" gradientTransform="translate(-610.93 160.55)" y1="-768.34" x1="-737.65" />
    <radialGradient id="radialGradient5789" xlink:href="#linearGradient4228" gradientUnits="userSpaceOnUse" cy="886.25" cx="152.9" gradientTransform="matrix(-1.3757 -.0000011499 -.0000011384 1.3291 -1134.7 -1697)" r="66.244" />
    <linearGradient id="linearGradient5792" y2="-264.4" xlink:href="#linearGradient3181" gradientUnits="userSpaceOnUse" x2="247.52" gradientTransform="matrix(1.0264 0 0 1.0407 1183.5 -216.83)" y1="-264.4" x1="41.734" />
    <linearGradient id="linearGradient5795" y2="-145.02" xlink:href="#linearGradient3181" gradientUnits="userSpaceOnUse" x2="333.22" gradientTransform="matrix(1 0 0 1.0407 1186.9 -216.83)" y1="-148.75" x1="-60.187" />
    <radialGradient id="radialGradient5799" xlink:href="#linearGradient4228" gradientUnits="userSpaceOnUse" cy="25.652" cx="154.26" gradientTransform="matrix(2.2363 -.0000040726 3.9456e-7 .29644 999.16 -457.25)" r="66.244" />
    <radialGradient id="radialGradient5803" xlink:href="#linearGradient4228" gradientUnits="userSpaceOnUse" cy="-2310.2" cx="154.65" gradientTransform="matrix(-.95514 1.0903e-7 0 .77089 -1196.2 793.66)" r="66.244" />
    <radialGradient id="radialGradient5807" xlink:href="#linearGradient4228" gradientUnits="userSpaceOnUse" cy="-2139.2" cx="158.47" gradientTransform="matrix(-1.2593 .00022447 .00029885 1.6796 -1146 2746.1)" r="66.244" />
    <radialGradient id="radialGradient5810" xlink:href="#linearGradient5582" gradientUnits="userSpaceOnUse" cy="-418.87" cx="177.33" gradientTransform="matrix(1.3965 -.0069195 .00072458 .14623 1092.1 -582.17)" r="80.203" />
    <radialGradient id="radialGradient5813" xlink:href="#linearGradient5582" gradientUnits="userSpaceOnUse" cy="-695.9" cx="177.58" gradientTransform="matrix(1.0644 -.0069195 .00095067 .14623 1151.1 -582.17)" r="80.203" />
    <radialGradient id="radialGradient5816" xlink:href="#linearGradient5582" gradientUnits="userSpaceOnUse" cy="-969.13" cx="177.83" gradientTransform="matrix(1.0644 -.0069195 .00095067 .14623 1151.1 -582.17)" r="80.203" />
    <linearGradient id="linearGradient5819" y2="-616.71" xlink:href="#linearGradient5840" gradientUnits="userSpaceOnUse" x2="-1265.6" y1="-618.37" x1="-1428.2" />
    <linearGradient id="linearGradient5871" y2="-791.41" xlink:href="#linearGradient3525" gradientUnits="userSpaceOnUse" x2="-738.58" gradientTransform="matrix(.90185 0 0 .57180 -970.93 39.032)" y1="-768.34" x1="-737.65" />
    <linearGradient id="linearGradient5874" y2="-791.41" xlink:href="#linearGradient3525" gradientUnits="userSpaceOnUse" x2="-738.58" gradientTransform="matrix(.52136 0 0 .57180 -1253.4 -176.43)" y1="-768.34" x1="-737.65" />
    <linearGradient id="linearGradient5877" y2="-791.41" xlink:href="#linearGradient3525" gradientUnits="userSpaceOnUse" x2="-738.58" gradientTransform="matrix(.70953 0 0 1 -1113.8 118.23)" y1="-768.34" x1="-737.65" />
    <linearGradient id="linearGradient5880" y2="-717.45" xlink:href="#linearGradient5680" gradientUnits="userSpaceOnUse" x2="-443.98" gradientTransform="matrix(1.6449 0 0 1 -914.48 15.842)" y1="-728.64" x1="-443.98" />
    <linearGradient id="linearGradient5883" y2="-264.4" xlink:href="#linearGradient3181" gradientUnits="userSpaceOnUse" x2="247.52" gradientTransform="matrix(.86850 0 0 1.8764 1494.3 -268.18)" y1="-264.4" x1="41.734" />
    <radialGradient id="radialGradient5886" xlink:href="#linearGradient5582" gradientUnits="userSpaceOnUse" cy="-423.35" cx="-289.32" gradientTransform="matrix(.53785 -.0047435 .00070968 .12896 1790.5 -586.9)" r="99.436" />
    <radialGradient id="radialGradient5889" xlink:href="#linearGradient5582" gradientUnits="userSpaceOnUse" cy="-423.35" cx="-289.32" gradientTransform="matrix(.74804 -.0072991 .00098703 .19844 1850.5 -606.33)" r="99.436" />
    <radialGradient id="radialGradient5892" xlink:href="#linearGradient5582" gradientUnits="userSpaceOnUse" cy="-423.35" cx="-289.32" gradientTransform="matrix(1.0471 -.0053114 .0013817 .14440 1936.6 -376.27)" r="99.436" />
    <radialGradient id="radialGradient5895" xlink:href="#linearGradient4228" gradientUnits="userSpaceOnUse" cy="886.25" cx="152.9" gradientTransform="matrix(-1.4563 -.0000021644 -.0000018315 2.2525 -1410.1 -2450.1)" r="66.244" />
    <linearGradient id="linearGradient5898" y2="-264.4" xlink:href="#linearGradient3181" gradientUnits="userSpaceOnUse" x2="247.52" gradientTransform="matrix(1.1485 0 0 1.0533 1451.1 -92.782)" y1="-264.4" x1="41.734" />
    <linearGradient id="linearGradient5901" y2="-623.78" xlink:href="#linearGradient5840" gradientUnits="userSpaceOnUse" x2="-1568" y1="-622.19" x1="-1702.3" />
    <linearGradient id="linearGradient11959" y2="-777.62" xlink:href="#linearGradient5840" gradientUnits="userSpaceOnUse" x2="-652.45" y1="-772.05" x1="-813.76" />
    <linearGradient id="linearGradient11961" y2="-791.41" xlink:href="#linearGradient3525" gradientUnits="userSpaceOnUse" x2="-738.58" y1="-768.34" x1="-737.65" />
    <radialGradient id="radialGradient11963" xlink:href="#linearGradient4228" gradientUnits="userSpaceOnUse" cy="25.652" cx="154.26" gradientTransform="matrix(2.2363 -.0000040726 3.9456e-7 .29644 388.96 -455.32)" r="66.244" />
    <linearGradient id="linearGradient11965" y2="-145.02" xlink:href="#linearGradient3181" gradientUnits="userSpaceOnUse" x2="333.22" gradientTransform="matrix(1 0 0 1.0407 576.72 -214.89)" y1="-148.75" x1="-60.187" />
    <linearGradient id="linearGradient11967" y2="-264.4" xlink:href="#linearGradient3181" gradientUnits="userSpaceOnUse" x2="247.52" gradientTransform="matrix(1.0264 0 0 1.0407 573.27 -214.89)" y1="-264.4" x1="41.734" />
    <radialGradient id="radialGradient11969" xlink:href="#linearGradient4228" gradientUnits="userSpaceOnUse" cy="886.25" cx="152.9" gradientTransform="matrix(-1.3757 -.0000032715 -.0000011384 3.7812 -524.46 -3868.2)" r="66.244" />
    <radialGradient id="radialGradient11971" xlink:href="#linearGradient4228" gradientUnits="userSpaceOnUse" cy="-469.58" cx="155.57" gradientTransform="matrix(1.355 -.0000036795 6.6053e-7 .23884 522.55 -767.62)" r="66.244" />
    <radialGradient id="radialGradient11973" xlink:href="#linearGradient5582" gradientUnits="userSpaceOnUse" cy="-748.45" cx="-820.08" gradientTransform="matrix(1.0764 -5.2364e-8 4.925e-7 .15591 1613 -725.73)" r="82.007" />
    <linearGradient id="linearGradient11975" y2="-791.41" xlink:href="#linearGradient3525" gradientUnits="userSpaceOnUse" x2="-738.58" gradientTransform="matrix(.82549 0 0 .93545 -127.46 -96.362)" y1="-768.34" x1="-737.65" />
    <radialGradient id="radialGradient11977" xlink:href="#linearGradient5582" gradientUnits="userSpaceOnUse" cy="-748.45" cx="-820.08" gradientTransform="matrix(1.2804 -6.2093e-8 5.8587e-7 .18488 1782.1 -660.64)" r="82.007" />
    <radialGradient id="radialGradient11979" xlink:href="#linearGradient5582" gradientUnits="userSpaceOnUse" cy="-931.85" cx="-813.8" gradientTransform="matrix(-.89863 .019941 .039103 1.7622 -1429 594.55)" r="128.44" />
    <radialGradient id="radialGradient11981" xlink:href="#linearGradient5582" gradientUnits="userSpaceOnUse" cy="-1076.5" cx="-822.11" gradientTransform="matrix(-.020654 1.5689 1.0556 .013896 387.74 153.85)" r="62.19" />
    <linearGradient id="linearGradient11983" y2="-791.41" xlink:href="#linearGradient3525" gradientUnits="userSpaceOnUse" x2="-738.58" gradientTransform="matrix(.68439 0 0 .90318 -231.64 -160.83)" y1="-768.34" x1="-737.65" />
    <linearGradient id="linearGradient11985" y2="-791.41" xlink:href="#linearGradient3525" gradientUnits="userSpaceOnUse" x2="-738.58" gradientTransform="matrix(1.1262 0 0 1 91.702 364.29)" y1="-768.34" x1="-737.65" />
    <linearGradient id="linearGradient12030" y2="-791.41" xlink:href="#linearGradient3525" gradientUnits="userSpaceOnUse" x2="-738.58" gradientTransform="matrix(.90468 0 0 .90253 -1474.9 309.88)" y1="-768.34" x1="-737.65" />
    <linearGradient id="linearGradient12033" y2="-711.89" xlink:href="#linearGradient5680" gradientUnits="userSpaceOnUse" x2="-443.98" gradientTransform="matrix(1 0 0 .53792 -1699.4 -196.42)" y1="-730.86" x1="-443.98" />
    <radialGradient id="radialGradient12036" xlink:href="#linearGradient4228" gradientUnits="userSpaceOnUse" cy="25.652" cx="154.26" gradientTransform="matrix(1.9976 -.0000040726 3.5245e-7 .29644 1838.5 -418.38)" r="66.244" />
    <radialGradient id="radialGradient12039" xlink:href="#linearGradient4228" gradientUnits="userSpaceOnUse" cy="-2310.2" cx="154.65" gradientTransform="matrix(-.95514 1.0903e-7 0 .77089 -1986.3 1120.8)" r="66.244" />
    <radialGradient id="radialGradient12042" xlink:href="#linearGradient4228" gradientUnits="userSpaceOnUse" cy="-496" cx="-582.55" gradientTransform="matrix(-1.2221 -4.1309e-7 -1.447e-7 .43142 -2844.8 -357.99)" r="65.009" />
    <radialGradient id="radialGradient12045" xlink:href="#linearGradient4228" gradientUnits="userSpaceOnUse" cy="886.25" cx="152.9" gradientTransform="matrix(-1.3757 -.0000011499 -.0000011384 1.3291 -1928.5 -1605.6)" r="66.244" />
    <linearGradient id="linearGradient12048" y2="-264.4" xlink:href="#linearGradient3181" gradientUnits="userSpaceOnUse" x2="247.52" gradientTransform="matrix(1.0264 0 0 .83442 1975.1 -137.6)" y1="-264.4" x1="41.734" />
    <linearGradient id="linearGradient12051" y2="-536.11" xlink:href="#linearGradient5840" gradientUnits="userSpaceOnUse" x2="-2067.7" gradientTransform="translate(0 .89878)" y1="-535.63" x1="-2199.9" />
    <linearGradient id="linearGradient12055" y2="-916.99" xlink:href="#linearGradient3525" gradientUnits="userSpaceOnUse" x2="-735.89" gradientTransform="matrix(.95771 0 0 .55106 -1436.9 -15.977)" y1="-927.18" x1="-736.05" />
    <radialGradient id="radialGradient12069" xlink:href="#linearGradient5582" gradientUnits="userSpaceOnUse" cy="-695.49" cx="-388.36" gradientTransform="matrix(2.0617 -2.4662 .92674 1.464 2106.8 -538.41)" r="25.15" />
    <radialGradient id="radialGradient12072" xlink:href="#linearGradient5582" gradientUnits="userSpaceOnUse" cy="-695.49" cx="-388.36" gradientTransform="matrix(2.1278 -.76598 .19245 1.1829 1708.8 -222.96)" r="25.15" />
    <radialGradient id="radialGradient12075" xlink:href="#linearGradient4228" gradientUnits="userSpaceOnUse" cy="-467.07" cx="-310.31" gradientTransform="matrix(.51786 -1.9234 .79723 .30264 1252.5 -908.28)" r="85.877" />
    <radialGradient id="radialGradient12078" xlink:href="#linearGradient5582" gradientUnits="userSpaceOnUse" cy="-702.5" cx="-395.67" gradientTransform="matrix(.87922 .0050912 .0093106 .30224 996.72 -505.86)" r="25.15" />
    <radialGradient id="radialGradient12081" xlink:href="#linearGradient4228" gradientUnits="userSpaceOnUse" cy="-764.84" cx="-334.3" gradientTransform="matrix(1.49 -.21479 .029132 .19702 1219.6 -697.67)" r="94.433" />
    <linearGradient id="linearGradient12084" y2="-145.02" xlink:href="#linearGradient3181" gradientUnits="userSpaceOnUse" x2="333.22" gradientTransform="matrix(.82893 0 0 .83638 592.3 -237.88)" y1="-148.75" x1="-60.187" />
    <radialGradient id="radialGradient12087" xlink:href="#linearGradient4228" gradientUnits="userSpaceOnUse" cy="-195.18" cx="380.8" gradientTransform="matrix(2.0964 .0035624 -0.00118 .32193 -73.79 -370.95)" r="66.244" />
    <linearGradient id="linearGradient12101" y2="-669.3" gradientUnits="userSpaceOnUse" x2="-1921.2" gradientTransform="translate(14.079 5.5282)" y1="-665.37" x1="-1991.3">
      <stop id="stop9856" style="stop-color:#7c5000;stop-opacity:.69804" offset="0" />
      <stop id="stop9858" style="stop-color:#9e6700;stop-opacity:0" offset="1" />
    </linearGradient>
    <radialGradient id="radialGradient12104" xlink:href="#linearGradient5946" gradientUnits="userSpaceOnUse" cy="-704.36" cx="-1890.6" gradientTransform="matrix(2.1255 .17438 -.048309 .58885 2106 46.972)" r="37.579" />
    <radialGradient id="radialGradient12107" xlink:href="#linearGradient5946" gradientUnits="userSpaceOnUse" cy="-512.96" cx="-1817.4" gradientTransform="matrix(.68482 .43252 -.63514 1.0056 -892.97 799.28)" r="38.487" />
    <linearGradient id="linearGradient12110" y2="-791.41" xlink:href="#linearGradient3525" gradientUnits="userSpaceOnUse" x2="-738.58" gradientTransform="matrix(.96758 0 0 1 -1172.3 378.92)" y1="-768.34" x1="-737.65" />
    <radialGradient id="radialGradient12113" xlink:href="#linearGradient5582" gradientUnits="userSpaceOnUse" cy="-695.49" cx="-388.36" gradientTransform="matrix(-2.0617 -2.4662 -.92674 1.464 -3265.3 -538.51)" r="25.15" />
    <radialGradient id="radialGradient12116" xlink:href="#linearGradient5582" gradientUnits="userSpaceOnUse" cy="-695.49" cx="-388.36" gradientTransform="matrix(-2.1278 -.76598 -.19245 1.1829 -2867.2 -223.06)" r="25.15" />
    <radialGradient id="radialGradient12119" xlink:href="#linearGradient4228" gradientUnits="userSpaceOnUse" cy="-467.07" cx="-310.31" gradientTransform="matrix(-.41624 -2.1593 -.81540 .25271 -2387.9 -1004.9)" r="85.877" />
    <radialGradient id="radialGradient12122" xlink:href="#linearGradient5582" gradientUnits="userSpaceOnUse" cy="-702.5" cx="-395.67" gradientTransform="matrix(-.87922 .0050912 -.0093106 .30224 -2155.1 -505.96)" r="25.15" />
    <radialGradient id="radialGradient12125" xlink:href="#linearGradient4228" gradientUnits="userSpaceOnUse" cy="-764.84" cx="-334.3" gradientTransform="matrix(-1.49 -.21479 -.029132 .19702 -2378.1 -697.77)" r="94.433" />
    <linearGradient id="linearGradient12128" y2="-145.02" xlink:href="#linearGradient3181" gradientUnits="userSpaceOnUse" x2="333.22" gradientTransform="matrix(.82893 0 0 .83638 1750.7 -237.98)" y1="-148.75" x1="-60.187" />
    <radialGradient id="radialGradient12131" xlink:href="#linearGradient4228" gradientUnits="userSpaceOnUse" cy="-195.18" cx="380.8" gradientTransform="matrix(2.0964 .0035624 -0.00118 .32193 1084.6 -371.05)" r="66.244" />
    <linearGradient id="linearGradient12134" y2="-617.83" xlink:href="#linearGradient5840" gradientUnits="userSpaceOnUse" x2="-1776.9" gradientTransform="translate(13.765 4.7408)" y1="-606.73" x1="-1982.3" />
  </defs>
  <g transform="matrix(.31655 0 0 .31655 712.72 370.89)"><g id="g5524" transform="translate(388.16 -92.41)">
      <path id="path5504" style="color:#000000;stroke:#525252;stroke-width:.19909;fill:#000000" d="m-844.16-1079.1c-2.39 0-4.31 2-4.31 4.3v28.2h-26.41c-2.65 0-4.81 2.1-4.81 4.8v41.7c0 2.66 2.16 4.82 4.81 4.82h26.41v25.66h-97.91c-1.56 0.32-2.01 1.29-1.59 2.74l50.22 175.85h11.91c-2.55 3.36-4.12 7.52-4.22 12.03-0.18 7.87 4.11 14.64 10.56 18h-5.34c-11.22 0-20.44 9.03-20.69 20.25-0.2 8.91 5.34 16.44 13.25 19.16h-7.5c-13.39 0-24.39 10.77-24.69 24.15-0.3 13.39 10.24 24.19 23.63 24.19h16.43c29.59 28.43 9.54 225.89-17.93 246.41-2.01 1.79-2.67 1.1-3.25 2.78l-1.25 56.94c-16.86 0.29-30.63 13.95-31 30.87-0.27 12.08 6.34 22.51 16.28 27.59h-18.69c-1.53 0-2.81 1.23-2.84 2.75l-1.38 62c-0.03 1.53 1.19 2.75 2.72 2.75h252.19c1.52 0 2.78-1.22 2.81-2.75l1.37-62c0.04-1.52-1.16-2.75-2.68-2.75h-20.97c10.16-5.08 17.23-15.51 17.5-27.59 0.37-16.55-12.2-29.98-28.5-30.84l1.25-56.97c0.01-0.65-0.2-1.25-0.56-1.72-20.01-15.99-56.38-216.45-29.35-247.03-0.02-0.16-0.07-0.29-0.12-0.44h14.53c13.39 0 24.39-10.8 24.69-24.19 0.29-13.38-10.24-24.15-23.63-24.15h-9.75c8.03-2.72 13.9-10.25 14.09-19.16 0.25-11.22-8.59-20.25-19.81-20.25h-5.31c6.6-3.36 11.2-10.13 11.38-18 0.09-4.52-1.28-8.67-3.69-12.03h13.4l50.22-175.85c0.47-1.7-0.03-2.74-1.97-2.74h-99.75v-25.66h27.66c2.66 0 4.78-2.16 4.78-4.82v-41.7c0-2.7-2.12-4.8-4.78-4.8h-27.66v-28.2c0-2.3-1.92-4.3-4.31-4.3h-55.44z" />
      <rect id="rect5506" style="opacity:.51525;color:#000000;fill:url(#radialGradient5536)" ry="27.061" height="54.121" width="234.7" y="-380.76" x="-933.44" />
      <rect id="rect5508" style="opacity:.35593;color:#000000;fill:url(#linearGradient5538)" ry="5.2942" height="60.487" width="249.86" y="-305.92" x="-939.56" />
      <rect id="rect5510" style="opacity:.37627;color:#000000;fill:url(#linearGradient5540)" ry="0" height="54.347" width="180.08" y="-423.2" x="-902.77" />
      <path id="path5512" style="opacity:.51525;color:#000000;fill:url(#radialGradient5542)" d="m-882.66-673.47l126.14 2.31c-16.06 124.67 14.71 183.07 32.45 248.08h-177.65c52.37-107.63 35.03-228.68 19.06-250.39z" />
      <rect id="rect5514" style="opacity:.51525;color:#000000;fill:url(#radialGradient5544)" ry="15.374" height="38.09" width="132.49" y="-804.8" x="-882.9" />
      <rect id="rect5516" style="opacity:.51525;color:#000000;fill:url(#radialGradient5546)" rx="32.182" ry="12.783" height="25.566" width="164.01" y="-761.19" x="-899.31" />
      <rect id="rect5518" style="opacity:.51525;color:#000000;fill:url(#radialGradient5548)" rx="38.283" ry="15.158" height="30.317" width="195.11" y="-720.16" x="-912.7" />
      <path id="path5520" style="opacity:.45085;color:#000000;fill:url(#radialGradient5550)" d="m-944.22-966.53l256.8-1.1c-13.44 54.8-33.88 129.78-48.58 171.18l-159.64 0.12c-6.07-21.74-50.87-162.68-48.58-170.2z" />
      <path id="path5522" style="opacity:.45085;color:#000000;fill:url(#radialGradient5552)" d="m-791.26-1077.8c-17.63 0.9-35.41 0.3-53.1 0.4-3.1 0.4-2.24 6-2.03 11.4v21c-9.84 0.2-19.87-0.5-29.62 0.3-2.42 1.7-2.12 8.8-1.6 12.6 0.41 11-0.75 22.4 0.47 33.2-2.69 3.41 30.38 0.65 30.75 2.15 0.31 9.04-0.45 19.36 0.1 28.35l59.71-0.27c0.09-9.67 0.25-19.32 0.25-29.01 10.38-0.45 21.13 0.82 31.32-0.5 3.05-4.12 0.08-10.62 1.12-15.42-0.23-9.9 0.44-20-0.28-29.9 0.82-2.6-20.83-1.3-32.16-1.5-0.32-10.4 0.61-21.1-0.37-31.4-1.25-1.1-2.86-1.4-4.56-1.4z" />
    </g>
    </g></svg>